<svg width="53" height="21" viewBox="0 0 53 21" fill="none" xmlns="http://www.w3.org/2000/svg">
<path d="M10.469 0.0862291V20.3862H3.625V5.24823H0.145V0.0862291H10.469ZM21.2561 7.24923C24.0981 7.24923 26.1861 7.84856 27.5201 9.04723C28.8734 10.2266 29.5501 11.7829 29.5501 13.7162C29.5501 14.9922 29.2118 16.1716 28.5351 17.2542C27.8778 18.3176 26.8531 19.1876 25.4611 19.8642C24.0691 20.5216 22.3388 20.8502 20.2701 20.8502C18.8394 20.8502 17.4088 20.6956 15.9781 20.3862C14.5668 20.0769 13.3294 19.6226 12.2661 19.0232L14.5861 13.9772C15.4368 14.4606 16.3261 14.8279 17.2541 15.0792C18.2014 15.3306 19.1198 15.4562 20.0091 15.4562C20.8018 15.4562 21.4398 15.3209 21.9231 15.0502C22.4258 14.7602 22.6771 14.3639 22.6771 13.8612C22.6771 13.3779 22.4548 13.0202 22.0101 12.7882C21.5654 12.5369 20.7631 12.4112 19.6031 12.4112H13.7161L14.7311 0.0862291H28.2161V5.24823H20.3571L20.2121 7.24923H21.2561ZM39.9942 13.6582L38.4572 15.3692V20.3862H31.7292V0.0862291H38.4572V7.45223L45.1272 0.0862291H52.5802L44.4602 9.01823L52.9862 20.3862H45.0692L39.9942 13.6582Z" fill="#FF6634"/>
</svg>
