<svg width="15" height="14" viewBox="0 0 15 14" fill="none" xmlns="http://www.w3.org/2000/svg">
<path d="M3.20499 1.75002C3.20479 2.14784 3.04656 2.52929 2.76512 2.81046C2.48367 3.09162 2.10206 3.24947 1.70424 3.24927C1.30641 3.24907 0.92496 3.09084 0.643796 2.8094C0.362632 2.52795 0.204788 2.14634 0.204987 1.74852C0.205186 1.35069 0.363412 0.969241 0.644857 0.688077C0.926302 0.406913 1.30791 0.249069 1.70574 0.249268C2.10356 0.249467 2.48501 0.407693 2.76618 0.689138C3.04734 0.970583 3.20519 1.35219 3.20499 1.75002ZM3.24999 4.36002H0.249987V13.75H3.24999V4.36002ZM7.98999 4.36002H5.00499V13.75H7.95999V8.82252C7.95999 6.07752 11.5375 5.82252 11.5375 8.82252V13.75H14.5V7.80252C14.5 3.17502 9.20499 3.34752 7.95999 5.62002L7.98999 4.36002Z" fill="white"/>
</svg>
