<svg width="47" height="45" viewBox="0 0 47 45" fill="none" xmlns="http://www.w3.org/2000/svg">
<path d="M46.1362 23.4797C46.1362 19.4046 45.0371 15.4049 42.9546 11.902C40.8721 8.39909 37.8834 5.52273 34.3033 3.57595C30.7232 1.62916 26.6843 0.684024 22.6122 0.840111C18.54 0.996199 14.5853 2.24773 11.1648 4.46285C7.74422 6.67797 4.98445 9.77467 3.17622 13.4267C1.36798 17.0787 0.578238 21.1508 0.890183 25.214C1.20213 29.2772 2.60422 33.1811 4.94873 36.5143C7.29324 39.8475 10.4934 42.4866 14.212 44.1536L15.7135 40.8042C12.5974 39.4072 9.91569 37.1957 7.95102 34.4025C5.98635 31.6093 4.81142 28.338 4.55002 24.9331C4.28861 21.5281 4.95041 18.1158 6.46568 15.0554C7.98096 11.9951 10.2936 9.40007 13.16 7.54383C16.0264 5.68759 19.3403 4.63882 22.7528 4.50802C26.1652 4.37722 29.5497 5.16923 32.5498 6.80062C35.5498 8.432 38.0544 10.8423 39.7994 13.7777C41.5445 16.7131 42.4656 20.0648 42.4656 23.4797H46.1362Z" fill="#FF6634"/>
</svg>
