<svg width="13" height="11" viewBox="0 0 13 11" fill="none" xmlns="http://www.w3.org/2000/svg">
<g clip-path="url(#clip0_3:162)">
<path d="M3.27352 10.617C2.98603 10.7532 2.65981 10.5146 2.71791 10.21L3.33608 6.95817L0.712181 4.65092C0.467145 4.43504 0.594504 4.04042 0.922957 3.99779L4.57095 3.51929L6.19757 0.544478C6.3443 0.276353 6.74127 0.276353 6.88799 0.544478L8.51462 3.51929L12.1626 3.99779C12.4911 4.04042 12.6184 4.43504 12.3726 4.65092L9.74948 6.95817L10.3677 10.21C10.4258 10.5146 10.0995 10.7532 9.81205 10.617L6.54167 9.06604L3.27277 10.617H3.27352Z" fill="#EDEDED"/>
<path d="M6.49999 9V0.5L4.49999 3.5L0.499989 4.5L3.49999 7L2.99999 10.5L6.49999 9Z" fill="#FF6634" stroke="#FF6634"/>
</g>
<defs>
<clipPath id="clip0_3:162">
<rect width="11.9167" height="11" fill="white" transform="translate(0.583332)"/>
</clipPath>
</defs>
</svg>
