<svg width="14" height="12" viewBox="0 0 14 12" fill="none" xmlns="http://www.w3.org/2000/svg">
<path d="M13.75 1.81448C13.2445 2.03826 12.7083 2.18483 12.1593 2.2493C12.7373 1.90318 13.1698 1.35885 13.3765 0.717609C12.8329 1.03977 12.2385 1.26726 11.6187 1.39036C11.239 0.984432 10.7459 0.702138 10.2036 0.580185C9.66135 0.458231 9.09491 0.50226 8.57797 0.706546C8.06104 0.910832 7.61753 1.26592 7.30511 1.72565C6.99269 2.18537 6.82582 2.72846 6.82619 3.2843C6.82619 3.50198 6.85038 3.71292 6.89931 3.91486C5.79766 3.86064 4.7198 3.57489 3.73597 3.07624C2.75215 2.57759 1.88443 1.87723 1.18938 1.0208C0.942425 1.44352 0.812896 1.92454 0.814187 2.41411C0.814187 3.3743 1.30187 4.22255 2.04662 4.71923C1.60673 4.70528 1.17658 4.58607 0.79225 4.37161V4.40705C0.791869 5.04671 1.01299 5.66676 1.41804 6.16184C1.82308 6.65692 2.38706 6.99648 3.01412 7.1228C2.60635 7.23463 2.17832 7.25118 1.76313 7.17117C1.93998 7.72147 2.2843 8.20278 2.748 8.54788C3.21169 8.89298 3.7716 9.08462 4.3495 9.09605C3.77499 9.54699 3.11718 9.8802 2.41374 10.0766C1.7103 10.273 0.975022 10.3288 0.25 10.2407C1.51592 11.0554 2.98979 11.488 4.49519 11.4867C9.59031 11.4867 12.3769 7.26567 12.3769 3.60492C12.3769 3.4868 12.3724 3.3653 12.3679 3.24661C12.9094 2.85458 13.3773 2.36994 13.75 1.81505V1.81448Z" fill="white"/>
</svg>
